<?xml version="1.0" encoding="utf-8"?>
<!-- Generator: Adobe Illustrator 28.0.0, SVG Export Plug-In . SVG Version: 6.00 Build 0)  -->
<svg version="1.1" id="Layer_1" xmlns="http://www.w3.org/2000/svg" xmlns:xlink="http://www.w3.org/1999/xlink" x="0px" y="0px"
	 viewBox="0 0 800 800" style="enable-background:new 0 0 800 800;" xml:space="preserve">
<style type="text/css">
	.st0{fill:#E8E8E8;}
</style>
<g id="store">
</g>
<g id="groceries">
</g>
<g id="fruits">
</g>
<g id="bakery">
</g>
<g id="hygiene_product">
</g>
<g id="detergent">
</g>
<g id="cooking_oil">
</g>
<g id="snacks">
</g>
<g id="canned_food">
</g>
<g id="wheat_flour">
</g>
<g id="milk_powder">
</g>
<g id="coffee_powder">
</g>
<g id="tea_bag">
</g>
<g id="meat">
</g>
<g id="chicken">
</g>
<g id="cart">
</g>
<g id="sausage">
</g>
<g id="egg">
</g>
<g id="drink">
	<g>
		<path class="st0" d="M712,360c0-13.6-10.4-24-24-24H432c-13.6,0-24,10.4-24,24c0,7.2,3.2,13.6,8.8,18.4
			c-5.6,5.6-8.8,12.8-8.8,21.6v304c0,8.8,3.2,16,8.8,21.6c-5.6,4.8-8.8,11.2-8.8,18.4c0,13.6,10.4,24,24,24h256
			c13.6,0,24-10.4,24-24c0-7.2-3.2-13.6-8.8-18.4c5.6-5.6,8.8-12.8,8.8-21.6V400c0-8.8-3.2-16-8.8-21.6
			C708.8,373.6,712,367.2,712,360z M432,352h256c4.8,0,8,3.2,8,8s-3.2,8-8,8h-8H440h-8c-4.8,0-8-3.2-8-8S427.2,352,432,352z
			 M680,384c8.8,0,16,7.2,16,16v304c0,8.8-7.2,16-16,16H440c-8.8,0-16-7.2-16-16V400c0-8.8,7.2-16,16-16H680z M688,752H432
			c-4.8,0-8-3.2-8-8s3.2-8,8-8h8h240h8c4.8,0,8,3.2,8,8S692.8,752,688,752z"/>
		<path class="st0" d="M304,188.8V112c4.8,0,8-3.2,8-8V40c0-4.8-3.2-8-8-8H176c-4.8,0-8,3.2-8,8v64c0,4.8,3.2,8,8,8v76.8
			c0,35.2-15.2,69.6-41.6,93.6C104.8,309.6,88,348,88,388v324c0,6.4,2.4,12,6.4,16c-4,4-6.4,9.6-6.4,16c0,13.6,10.4,24,24,24h256
			c13.6,0,24-10.4,24-24c0-6.4-2.4-12-6.4-16c4-4,6.4-9.6,6.4-16V387.2c0-40-16.8-78.4-46.4-105.6C319.2,258.4,304,224,304,188.8z
			 M184,48h112v48H184V48z M368,752H112c-4.8,0-8-3.2-8-8s3.2-8,8-8h256c4.8,0,8,3.2,8,8S372.8,752,368,752z M376,712
			c0,4.8-3.2,8-8,8H112c-4.8,0-8-3.2-8-8V387.2c0-35.2,15.2-69.6,41.6-93.6C175.2,266.4,192,228,192,188v-76h96v76.8
			c0,40,16.8,78.4,46.4,105.6c26.4,24,41.6,58.4,41.6,93.6V712z"/>
		<path class="st0" d="M240,352c-61.6,0-112,50.4-112,112v200c0,4.8,3.2,8,8,8h208c4.8,0,8-3.2,8-8V464C352,402.4,301.6,352,240,352
			z M336,656H144V464c0-52.8,43.2-96,96-96s96,43.2,96,96V656z"/>
		<path class="st0" d="M472,704h24c13.6,0,24-10.4,24-24V424c0-13.6-10.4-24-24-24h-24c-13.6,0-24,10.4-24,24v256
			C448,693.6,458.4,704,472,704z M464,424c0-4.8,3.2-8,8-8h24c4.8,0,8,3.2,8,8v256c0,4.8-3.2,8-8,8h-24c-4.8,0-8-3.2-8-8V424z"/>
		<path class="st0" d="M560,704c13.6,0,24-10.4,24-24V424c0-13.6-10.4-24-24-24s-24,10.4-24,24v256C536,693.6,546.4,704,560,704z
			 M552,424c0-4.8,3.2-8,8-8s8,3.2,8,8v256c0,4.8-3.2,8-8,8s-8-3.2-8-8V424z"/>
	</g>
</g>
<g id="vegetable">
</g>
</svg>
