<?xml version="1.0" ?>
<!-- Uploaded to: SVG Repo, www.svgrepo.com, Generator: SVG Repo Mixer Tools -->
<svg fill="#000000" width="800px" height="800px" viewBox="0 0 100 100" version="1.1" xml:space="preserve" xmlns="http://www.w3.org/2000/svg" xmlns:xlink="http://www.w3.org/1999/xlink">
<g id="store"/>
<g id="groceries"/>
<g id="fruits"/>
<g id="bakery"/>
<g id="hygiene_product"/>
<g id="detergent"/>
<g id="cooking_oil"/>
<g id="snacks"/>
<g id="canned_food"/>
<g id="wheat_flour"/>
<g id="milk_powder"/>
<g id="coffee_powder"/>
<g id="tea_bag"/>
<g id="meat"/>
<g id="chicken"/>
<g id="cart"/>
<g id="sausage"/>
<g id="egg"/>
<g id="drink">
<g>
<path d="M89,45c0-1.7-1.3-3-3-3H54c-1.7,0-3,1.3-3,3c0,0.9,0.4,1.7,1.1,2.3C51.4,48,51,48.9,51,50v38c0,1.1,0.4,2,1.1,2.7    C51.4,91.3,51,92.1,51,93c0,1.7,1.3,3,3,3h32c1.7,0,3-1.3,3-3c0-0.9-0.4-1.7-1.1-2.3C88.6,90,89,89.1,89,88V50    c0-1.1-0.4-2-1.1-2.7C88.6,46.7,89,45.9,89,45z M54,44h32c0.6,0,1,0.4,1,1s-0.4,1-1,1h-1H55h-1c-0.6,0-1-0.4-1-1S53.4,44,54,44z     M85,48c1.1,0,2,0.9,2,2v38c0,1.1-0.9,2-2,2H55c-1.1,0-2-0.9-2-2V50c0-1.1,0.9-2,2-2H85z M86,94H54c-0.6,0-1-0.4-1-1s0.4-1,1-1h1    h30h1c0.6,0,1,0.4,1,1S86.6,94,86,94z"/>
<path d="M38,23.6V14c0.6,0,1-0.4,1-1V5c0-0.6-0.4-1-1-1H22c-0.6,0-1,0.4-1,1v8c0,0.6,0.4,1,1,1v9.6c0,4.4-1.9,8.7-5.2,11.7    c-3.7,3.4-5.8,8.2-5.8,13.2V89c0,0.8,0.3,1.5,0.8,2c-0.5,0.5-0.8,1.2-0.8,2c0,1.7,1.3,3,3,3h32c1.7,0,3-1.3,3-3    c0-0.8-0.3-1.5-0.8-2c0.5-0.5,0.8-1.2,0.8-2V48.4c0-5-2.1-9.8-5.8-13.2C39.9,32.3,38,28,38,23.6z M23,6h14v6H23V6z M46,94H14    c-0.6,0-1-0.4-1-1s0.4-1,1-1h32c0.6,0,1,0.4,1,1S46.6,94,46,94z M47,89c0,0.6-0.4,1-1,1H14c-0.6,0-1-0.4-1-1V48.4    c0-4.4,1.9-8.7,5.2-11.7c3.7-3.4,5.8-8.2,5.8-13.2V14h12v9.6c0,5,2.1,9.8,5.8,13.2c3.3,3,5.2,7.3,5.2,11.7V89z"/>
<path d="M30,44c-7.7,0-14,6.3-14,14v25c0,0.6,0.4,1,1,1h26c0.6,0,1-0.4,1-1V58C44,50.3,37.7,44,30,44z M42,82H18V58    c0-6.6,5.4-12,12-12s12,5.4,12,12V82z"/>
<path d="M59,88h3c1.7,0,3-1.3,3-3V53c0-1.7-1.3-3-3-3h-3c-1.7,0-3,1.3-3,3v32C56,86.7,57.3,88,59,88z M58,53c0-0.6,0.4-1,1-1h3    c0.6,0,1,0.4,1,1v32c0,0.6-0.4,1-1,1h-3c-0.6,0-1-0.4-1-1V53z"/>
<path d="M70,88c1.7,0,3-1.3,3-3V53c0-1.7-1.3-3-3-3s-3,1.3-3,3v32C67,86.7,68.3,88,70,88z M69,53c0-0.6,0.4-1,1-1s1,0.4,1,1v32    c0,0.6-0.4,1-1,1s-1-0.4-1-1V53z"/>
</g>
</g>
<g id="vegetable"/>
</svg>