<?xml version="1.0" encoding="utf-8"?>
<!-- Generator: Adobe Illustrator 28.0.0, SVG Export Plug-In . SVG Version: 6.00 Build 0)  -->
<svg version="1.1" id="Layer_1" xmlns="http://www.w3.org/2000/svg" xmlns:xlink="http://www.w3.org/1999/xlink" x="0px" y="0px"
	 viewBox="0 0 800 800" style="enable-background:new 0 0 800 800;" xml:space="preserve">
<style type="text/css">
	.st0{fill:#FFFFFF;}
</style>
<g>
	<g>
		<path class="st0" d="M773.3,60h-640c-14.7,0-26.7,12-26.7,26.7v26.7H80c-14.7,0-26.7,12-26.7,26.7v26.7H26.7
			C12,166.7,0,178.6,0,193.3v520C0,728,12,740,26.7,740h640c14.7,0,26.7-12,26.7-26.7v-26.7H720c14.7,0,26.7-12,26.7-26.7v-26.7
			h26.7c14.7,0,26.7-12,26.7-26.7v-520C800,72,788,60,773.3,60z M26.7,193.3h640l0,297.9l-70-80c-5.1-5.8-15-5.8-20.1,0l-84.5,96.5
			l-230-204.4c-5.1-4.5-12.7-4.5-17.7,0L26.7,497V193.3z M666.7,673.5v39.9h-640V532.6l226.7-201.5l231.1,205.5
			c2.6,2.4,6.2,3.4,9.7,3.3c3.6-0.2,6.9-1.9,9.2-4.5l83.3-95.2l80,91.5l0,141.5c0,0,0,0.1,0,0.1S666.7,673.4,666.7,673.5z M720,660
			h-26.7V193.3c0-14.7-12-26.7-26.7-26.7H80V140h640V660L720,660z M773.3,606.7h-26.7V140c0-14.7-12-26.7-26.7-26.7H133.3V86.7h640
			V606.7z"/>
	</g>
</g>
<g>
	<g>
		<path class="st0" d="M480,273.3c-29.4,0-53.3,23.9-53.3,53.3S450.6,380,480,380c29.4,0,53.3-23.9,53.3-53.3
			C533.3,297.3,509.4,273.3,480,273.3z M480,353.3c-14.7,0-26.7-12-26.7-26.7c0-14.7,12-26.7,26.7-26.7c14.7,0,26.7,12,26.7,26.7
			C506.7,341.4,494.7,353.3,480,353.3z"/>
	</g>
</g>
</svg>
