<?xml version="1.0" encoding="UTF-8"?>
<svg id="Layer_1" data-name="Layer 1" xmlns="http://www.w3.org/2000/svg" viewBox="0 0 697.14 212.57">
  <defs>
    <style>
      .cls-1 {
        font-family: Inter-Regular, Inter;
        font-size: 39.54px;
        font-variation-settings: 'wght' 400, 'slnt' 0;
      }

      .cls-1, .cls-2, .cls-3 {
        fill: #ceb12c;
      }

      .cls-2 {
        stroke: #ceb12c;
        stroke-miterlimit: 10;
        stroke-width: 3px;
      }

      .cls-3 {
        font-family: Inter-Medium, Inter;
        font-size: 91.83px;
        font-variation-settings: 'wght' 500, 'slnt' 0;
        font-weight: 500;
      }
    </style>
  </defs>
  <text class="cls-1" transform="translate(405.31 169.52)"><tspan x="0" y="0" xml:space="preserve">B  A  R</tspan></text>
  <text class="cls-3" transform="translate(269.29 106.29)"><tspan x="0" y="0">COMODO</tspan></text>
  <path class="cls-2" d="m106.29,1.5C48.51,1.5,1.5,48.51,1.5,106.29s47.01,104.79,104.79,104.79,104.79-47.01,104.79-104.79S164.06,1.5,106.29,1.5Zm5.19,101.15c-5.56,7.03-14.15,11.56-23.79,11.56-16.71,0-30.31-13.6-30.31-30.31s13.6-30.31,30.31-30.31,30.31,13.6,30.31,30.31c0,4.61-1.04,8.98-2.89,12.9-1.08,2.04-2.3,3.99-3.63,5.85Zm-23.79-54.45c-19.68,0-35.69,16.01-35.69,35.69s16.01,35.69,35.69,35.69c1.04,0,2.06-.05,3.07-.14-6.19,2.72-13.03,4.25-20.22,4.25-27.79,0-50.39-22.61-50.39-50.39s22.61-50.39,50.39-50.39,49.02,21.26,50.33,47.88c-5.24-13.21-18.14-22.59-33.19-22.59Zm18.59,157.49c-54.81,0-99.4-44.59-99.4-99.4,0-14.14,2.98-27.6,8.32-39.79-.27,2.23-.43,4.5-.43,6.81,0,30.76,25.02,55.78,55.78,55.78,18.61,0,35.1-9.17,45.24-23.21,1.63-2.08,3.03-4.33,4.17-6.74,4.06-7.73,6.36-16.51,6.36-25.83,0-30.76-25.02-55.78-55.78-55.78-3.81,0-7.53.39-11.12,1.12,13.97-7.5,29.92-11.76,46.85-11.76,54.81,0,99.4,44.59,99.4,99.4s-44.59,99.4-99.4,99.4Z"/>
</svg>